# xmcd
#
# Track frame offsets: 
#        150
#        12120
#        24947
#        35403
#        46580
#        65284
#        79053
#        92314
#        106328
#        119434
#        129491
#        143337
#        155332
#        173285
#        183520
#        193334
#        222699
#        238727
#        254316
#        265766
#        280961
#        292348
#        326691
#        333572
#
# Disc length: 4616 seconds
#
# Revision: 1
# Processed by: cddbd v1.5.2PL0 Copyright (c) Steve Scherf et al.
# Submitted via: ExactAudioCopyFreeDBPlugin 1.0
#
DISCID=51120618
DTITLE=Various Artist - The Birth Of British Blues CD 3 - Blues Before Sunris
DTITLE=e, 2015
DYEAR=2015
DGENRE=Blues
TTITLE0=Alexis Korner's Skiffle Group ft. Cyril Davies - I Ain't Gonna
TTITLE0=Worry No More (1957)
TTITLE1=Alexis Korner's Skiffle Group ft. Cyril Davies - County Jail (
TTITLE1=1957)
TTITLE2=Alexis Korner's Skiffle Group ft. Cyril Davies - Kid Man (1957
TTITLE2=)
TTITLE3=Alexis Korner's Skiffle Group ft. Cyril Davies - Easy Rider (1
TTITLE3=957)
TTITLE4=Chris Barber's Jazz Band - Jail House Blues (1958)
TTITLE5=Humphrey Lyttleton - Big Bill Blues (1958)
TTITLE6=Humphrey Lyttleton - Trouble In Mind (1958)
TTITLE7=Humphrey Lyttleton - Weary Blues (1958)
TTITLE8=Alexis Korner's Blues Incorperated ft. Cyril Davies - Sail On 
TTITLE8=(1958)
TTITLE9=Alexis Korner's Blues Incorperated ft. Cyril Davies - National
TTITLE9=Defence Blues (1958)
TTITLE10=Alexis Korner's Blues Incorperated ft. Cyril Davies - Go Down
TTITLE10=Sunshine (1958)
TTITLE11=Alexis Korner's Blues Incorperated ft. Cyril Davies - Death L
TTITLE11=etter (1958)
TTITLE12=Ottilie Patterson with Chris Barber's Jazz Band - Badspell Bl
TTITLE12=ues (1960)
TTITLE13=Ottilie Patterson with Chris Barber's Jazz Band - Kidman Blue
TTITLE13=s (1960)
TTITLE14=Ottilie Patterson with Chris Barber's Jazz Band - Four Points
TTITLE14=Blues (1960)
TTITLE15=Ottilie Patterson with Chris Barber's Jazz Band - Backwater B
TTITLE15=lues (1960)
TTITLE16=Ottilie Patterson with Chris Barber's Jazz Band - Kansas City
TTITLE16=Blues (1960)
TTITLE17=Ottilie Patterson with Chris Barber's Jazz Band - It's All Ov
TTITLE17=er (1960)
TTITLE18=Ottilie Patterson with Chris Barber's Jazz Band - Mama, He Tr
TTITLE18=eats Your Daughter Mean (1960)
TTITLE19=Ottilie Patterson with Chris Barber's Jazz Band - Tell Me Why
TTITLE19=(1960)
TTITLE20=Ottilie Patterson with Chris Barber's Jazz Band - Can't Affor
TTITLE20=d To Do It (1960)
TTITLE21=Ottilie Patterson with Chris Barber's Jazz Band - Blues Befor
TTITLE21=e Sunrise (1960)
TTITLE22=Ottilie Patterson with Chris Barber's Jazz Band - Me And My C
TTITLE22=hauffeur (1960)
TTITLE23=Ottilie Patterson with Chris Barber's Jazz Band - Trixie's Bl
TTITLE23=ues (1960)
EXTD=
EXTT0=
EXTT1=
EXTT2=
EXTT3=
EXTT4=
EXTT5=
EXTT6=
EXTT7=
EXTT8=
EXTT9=
EXTT10=
EXTT11=
EXTT12=
EXTT13=
EXTT14=
EXTT15=
EXTT16=
EXTT17=
EXTT18=
EXTT19=
EXTT20=
EXTT21=
EXTT22=
EXTT23=
PLAYORDER=
